<?xml version="1.0" encoding="utf-8"?>
<!-- Generator: Adobe Illustrator 16.0.0, SVG Export Plug-In . SVG Version: 6.00 Build 0)  -->
<!DOCTYPE svg PUBLIC "-//W3C//DTD SVG 1.1//EN" "http://www.w3.org/Graphics/SVG/1.1/DTD/svg11.dtd">
<svg version="1.1" id="Layer_1" xmlns="http://www.w3.org/2000/svg" xmlns:xlink="http://www.w3.org/1999/xlink" x="0px" y="0px"
	 width="98.625px" height="87.875px" viewBox="0 0 98.625 87.875" enable-background="new 0 0 98.625 87.875" xml:space="preserve">
<ellipse fill="#FFFFFF" cx="50.125" cy="44.188" rx="36.441" ry="27.563"/>
<rect x="17.125" y="28.313" fill="none" width="66" height="31.25"/>
<g enable-background="new    ">
	<path fill="#573A39" d="M30.226,39.149c1.631-2.671,2.851-4.773,3.657-6.31s1.21-2.514,1.21-2.933c0-0.155-0.055-0.282-0.164-0.383
		s-0.237-0.15-0.383-0.15c-0.283,0-1.08,0.273-2.393,0.82c-1.085,0.456-1.878,0.818-2.379,1.087
		c-0.501,0.269-1.192,0.654-2.071,1.155s-1.383,0.752-1.511,0.752c-0.255,0-0.383-0.178-0.383-0.533
		c0-0.675,0.442-1.581,1.326-2.721s2.073-2.138,3.568-2.994c0.182-0.118,0.273-0.109,0.273,0.027c0,0.046-0.109,0.15-0.328,0.314
		s-0.413,0.33-0.581,0.499c-0.169,0.169-0.358,0.422-0.567,0.759c1.914-0.957,3.32-1.632,4.218-2.023
		c0.897-0.392,1.666-0.588,2.304-0.588c0.556,0,0.993,0.116,1.313,0.349c0.319,0.232,0.479,0.567,0.479,1.005
		c0,0.383-0.153,0.938-0.458,1.668c-0.306,0.729-0.75,1.615-1.333,2.659c-0.583,1.044-1.178,2.076-1.784,3.097
		c-0.606,1.021-1.702,2.866-3.288,5.537c1.768-2.215,3.395-4.151,4.881-5.811c1.485-1.659,2.78-3.008,3.883-4.047
		c1.103-1.039,2.032-1.82,2.789-2.345c0.756-0.524,1.313-0.786,1.668-0.786c0.127,0,0.278,0.121,0.451,0.362
		c0.173,0.241,0.328,0.535,0.465,0.882s0.205,0.629,0.205,0.848c0,0.602-0.153,1.198-0.458,1.791
		c-0.306,0.593-0.759,1.304-1.36,2.133c-1.714,2.315-2.965,4.138-3.753,5.469c-0.789,1.331-1.183,2.401-1.183,3.213
		c0,0.61,0.319,0.916,0.957,0.916c0.292,0,0.633-0.109,1.025-0.328c0.392-0.219,0.861-0.556,1.408-1.012s1.098-0.952,1.654-1.49
		l0.027,1.066c-0.784,0.802-1.486,1.488-2.105,2.058c-0.62,0.569-1.206,1.068-1.757,1.497c-0.552,0.429-1.046,0.752-1.483,0.971
		s-0.82,0.328-1.148,0.328c-0.474,0-0.854-0.162-1.142-0.485s-0.431-0.75-0.431-1.278c0-0.492,0.107-1.087,0.321-1.784
		c0.214-0.697,0.542-1.502,0.984-2.413c0.442-0.911,0.989-1.9,1.641-2.967c0.651-1.066,1.388-2.179,2.208-3.336
		c0.802-1.148,1.203-1.887,1.203-2.215c0-0.191-0.101-0.287-0.301-0.287c-0.812,0-2.662,1.618-5.551,4.854
		c-0.183,0.2-0.499,0.572-0.95,1.114s-0.912,1.119-1.381,1.729c-0.47,0.61-0.996,1.297-1.579,2.058
		c-0.583,0.761-1.176,1.533-1.777,2.317c-0.283,0.374-0.524,0.561-0.725,0.561c-0.219,0-0.506-0.178-0.861-0.533
		s-0.533-0.615-0.533-0.779c0-0.191,0.253-0.67,0.759-1.436S29.916,39.669,30.226,39.149z"/>
	<path fill="#573A39" d="M45.689,40.626v0.342c0,0.538,0.132,0.957,0.396,1.258c0.264,0.301,0.61,0.451,1.039,0.451
		c0.446,0,0.909-0.104,1.388-0.314s0.955-0.487,1.429-0.834c0.473-0.347,1.053-0.812,1.736-1.395v0.834
		c-1.031,1.239-1.997,2.189-2.899,2.851s-1.818,0.991-2.748,0.991c-0.812,0-1.454-0.314-1.928-0.943
		c-0.474-0.629-0.711-1.49-0.711-2.584c0-0.957,0.223-1.825,0.67-2.604c0.446-0.779,1.176-1.602,2.188-2.468
		c0.692-0.593,1.381-1.039,2.064-1.34s1.294-0.451,1.833-0.451c0.428,0,0.768,0.098,1.018,0.294c0.251,0.196,0.377,0.49,0.377,0.882
		c0,0.574-0.215,1.146-0.643,1.716c-0.43,0.569-1.083,1.135-1.962,1.695C48.056,39.566,46.974,40.106,45.689,40.626z M45.826,39.737
		c0.82-0.319,1.522-0.716,2.105-1.189c0.583-0.474,1.014-0.928,1.292-1.36c0.278-0.433,0.417-0.75,0.417-0.95
		c0-0.21-0.096-0.314-0.287-0.314c-0.164,0-0.431,0.104-0.8,0.314s-0.743,0.483-1.121,0.82c-0.378,0.337-0.718,0.733-1.019,1.189
		S45.917,39.199,45.826,39.737z"/>
	<path fill="#573A39" d="M58.213,39.983v1.012c-1.906,2.524-3.455,3.787-4.648,3.787c-0.648,0-1.156-0.354-1.525-1.06
		s-0.553-1.634-0.553-2.782c0-0.93,0.219-2.035,0.656-3.315s1.022-2.579,1.756-3.896c0.734-1.317,1.495-2.466,2.283-3.445
		c0.789-0.979,1.52-1.666,2.195-2.058c0.273-0.164,0.486-0.246,0.643-0.246c0.191,0,0.318,0.084,0.383,0.253
		c0.063,0.169,0.096,0.458,0.096,0.868c0,1.267-0.516,2.823-1.545,4.669c-1.031,1.846-2.467,3.73-4.307,5.653
		c-0.092,0.474-0.137,0.839-0.137,1.094c0,0.583,0.125,1.058,0.375,1.422c0.251,0.364,0.6,0.547,1.047,0.547
		c0.227,0,0.473-0.089,0.738-0.267c0.264-0.178,0.541-0.398,0.834-0.663C56.795,41.291,57.365,40.768,58.213,39.983z M54.125,37.522
		c0.473-0.465,0.932-0.993,1.373-1.586c0.442-0.593,0.859-1.226,1.252-1.9c0.391-0.675,0.699-1.28,0.922-1.818
		c0.224-0.538,0.336-0.943,0.336-1.217c0-0.21-0.074-0.314-0.219-0.314c-0.055,0-0.16,0.05-0.314,0.15
		c-0.557,0.456-1.182,1.347-1.873,2.673C54.908,34.836,54.416,36.174,54.125,37.522z"/>
	<path fill="#573A39" d="M64.625,39.983v1.012c-1.906,2.524-3.455,3.787-4.648,3.787c-0.648,0-1.156-0.354-1.525-1.06
		s-0.553-1.634-0.553-2.782c0-0.93,0.219-2.035,0.656-3.315s1.022-2.579,1.756-3.896c0.734-1.317,1.495-2.466,2.283-3.445
		c0.789-0.979,1.52-1.666,2.195-2.058c0.273-0.164,0.486-0.246,0.643-0.246c0.191,0,0.318,0.084,0.383,0.253
		c0.063,0.169,0.096,0.458,0.096,0.868c0,1.267-0.516,2.823-1.545,4.669c-1.031,1.846-2.467,3.73-4.307,5.653
		c-0.092,0.474-0.137,0.839-0.137,1.094c0,0.583,0.125,1.058,0.375,1.422c0.251,0.364,0.6,0.547,1.047,0.547
		c0.227,0,0.473-0.089,0.738-0.267c0.264-0.178,0.541-0.398,0.834-0.663C63.207,41.291,63.777,40.768,64.625,39.983z M60.537,37.522
		c0.473-0.465,0.932-0.993,1.373-1.586c0.442-0.593,0.859-1.226,1.252-1.9c0.391-0.675,0.699-1.28,0.922-1.818
		c0.224-0.538,0.336-0.943,0.336-1.217c0-0.21-0.074-0.314-0.219-0.314c-0.055,0-0.16,0.05-0.314,0.15
		c-0.557,0.456-1.182,1.347-1.873,2.673C61.32,34.836,60.828,36.174,60.537,37.522z"/>
	<path fill="#573A39" d="M64.447,40.517v-0.328c2.352-2.479,3.969-4.216,4.854-5.209c0.199-1.121,0.684-1.682,1.449-1.682
		c0.191,0,0.396,0.055,0.615,0.164l0.082,0.26c-0.037,0.109-0.055,0.265-0.055,0.465c0,0.173,0.065,0.494,0.197,0.964
		c0.133,0.47,0.234,0.863,0.309,1.183c0.072,0.319,0.109,0.679,0.109,1.08c0,0.602-0.137,1.178-0.41,1.729s-0.67,1.08-1.189,1.586
		s-1.189,1.023-2.01,1.552c0.328,0.055,0.588,0.082,0.779,0.082c0.373,0,0.776-0.094,1.209-0.28
		c0.434-0.187,0.875-0.438,1.326-0.752s0.979-0.723,1.58-1.224v0.916c-1.168,1.14-2.211,2.003-3.131,2.591
		c-0.922,0.588-1.715,0.882-2.379,0.882c-0.857,0-1.65-0.364-2.379-1.094c-0.43-0.438-0.695-0.856-0.801-1.258
		C64.499,41.742,64.447,41.2,64.447,40.517z M69.547,38.425l-0.246-1.996c-0.566,0.638-1.773,1.864-3.623,3.678
		c0.547,0.118,0.92,0.278,1.121,0.479c0.199,0.2,0.482,0.588,0.848,1.162c0.619-0.255,1.096-0.604,1.428-1.046
		c0.333-0.442,0.5-1.046,0.5-1.812c0-0.091-0.003-0.173-0.008-0.246C69.563,38.57,69.555,38.498,69.547,38.425z"/>
</g>
<g enable-background="new    ">
	<path fill="none" stroke="#573A39" stroke-width="0.5" stroke-miterlimit="10" d="M30.226,39.149
		c1.631-2.671,2.851-4.773,3.657-6.31s1.21-2.514,1.21-2.933c0-0.155-0.055-0.282-0.164-0.383s-0.237-0.15-0.383-0.15
		c-0.283,0-1.08,0.273-2.393,0.82c-1.085,0.456-1.878,0.818-2.379,1.087c-0.501,0.269-1.192,0.654-2.071,1.155
		s-1.383,0.752-1.511,0.752c-0.255,0-0.383-0.178-0.383-0.533c0-0.675,0.442-1.581,1.326-2.721s2.073-2.138,3.568-2.994
		c0.182-0.118,0.273-0.109,0.273,0.027c0,0.046-0.109,0.15-0.328,0.314s-0.413,0.33-0.581,0.499
		c-0.169,0.169-0.358,0.422-0.567,0.759c1.914-0.957,3.32-1.632,4.218-2.023c0.897-0.392,1.666-0.588,2.304-0.588
		c0.556,0,0.993,0.116,1.313,0.349c0.319,0.232,0.479,0.567,0.479,1.005c0,0.383-0.153,0.938-0.458,1.668
		c-0.306,0.729-0.75,1.615-1.333,2.659c-0.583,1.044-1.178,2.076-1.784,3.097c-0.606,1.021-1.702,2.866-3.288,5.537
		c1.768-2.215,3.395-4.151,4.881-5.811c1.485-1.659,2.78-3.008,3.883-4.047c1.103-1.039,2.032-1.82,2.789-2.345
		c0.756-0.524,1.313-0.786,1.668-0.786c0.127,0,0.278,0.121,0.451,0.362c0.173,0.241,0.328,0.535,0.465,0.882
		s0.205,0.629,0.205,0.848c0,0.602-0.153,1.198-0.458,1.791c-0.306,0.593-0.759,1.304-1.36,2.133
		c-1.714,2.315-2.965,4.138-3.753,5.469c-0.789,1.331-1.183,2.401-1.183,3.213c0,0.61,0.319,0.916,0.957,0.916
		c0.292,0,0.633-0.109,1.025-0.328c0.392-0.219,0.861-0.556,1.408-1.012s1.098-0.952,1.654-1.49l0.027,1.066
		c-0.784,0.802-1.486,1.488-2.105,2.058c-0.62,0.569-1.206,1.068-1.757,1.497c-0.552,0.429-1.046,0.752-1.483,0.971
		s-0.82,0.328-1.148,0.328c-0.474,0-0.854-0.162-1.142-0.485s-0.431-0.75-0.431-1.278c0-0.492,0.107-1.087,0.321-1.784
		c0.214-0.697,0.542-1.502,0.984-2.413c0.442-0.911,0.989-1.9,1.641-2.967c0.651-1.066,1.388-2.179,2.208-3.336
		c0.802-1.148,1.203-1.887,1.203-2.215c0-0.191-0.101-0.287-0.301-0.287c-0.812,0-2.662,1.618-5.551,4.854
		c-0.183,0.2-0.499,0.572-0.95,1.114s-0.912,1.119-1.381,1.729c-0.47,0.61-0.996,1.297-1.579,2.058
		c-0.583,0.761-1.176,1.533-1.777,2.317c-0.283,0.374-0.524,0.561-0.725,0.561c-0.219,0-0.506-0.178-0.861-0.533
		s-0.533-0.615-0.533-0.779c0-0.191,0.253-0.67,0.759-1.436S29.916,39.669,30.226,39.149z"/>
	<path fill="none" stroke="#573A39" stroke-width="0.5" stroke-miterlimit="10" d="M45.689,40.626v0.342
		c0,0.538,0.132,0.957,0.396,1.258c0.264,0.301,0.61,0.451,1.039,0.451c0.446,0,0.909-0.104,1.388-0.314s0.955-0.487,1.429-0.834
		c0.473-0.347,1.053-0.812,1.736-1.395v0.834c-1.031,1.239-1.997,2.189-2.899,2.851s-1.818,0.991-2.748,0.991
		c-0.812,0-1.454-0.314-1.928-0.943c-0.474-0.629-0.711-1.49-0.711-2.584c0-0.957,0.223-1.825,0.67-2.604
		c0.446-0.779,1.176-1.602,2.188-2.468c0.692-0.593,1.381-1.039,2.064-1.34s1.294-0.451,1.833-0.451
		c0.428,0,0.768,0.098,1.018,0.294c0.251,0.196,0.377,0.49,0.377,0.882c0,0.574-0.215,1.146-0.643,1.716
		c-0.43,0.569-1.083,1.135-1.962,1.695C48.056,39.566,46.974,40.106,45.689,40.626z M45.826,39.737
		c0.82-0.319,1.522-0.716,2.105-1.189c0.583-0.474,1.014-0.928,1.292-1.36c0.278-0.433,0.417-0.75,0.417-0.95
		c0-0.21-0.096-0.314-0.287-0.314c-0.164,0-0.431,0.104-0.8,0.314s-0.743,0.483-1.121,0.82c-0.378,0.337-0.718,0.733-1.019,1.189
		S45.917,39.199,45.826,39.737z"/>
	<path fill="none" stroke="#573A39" stroke-width="0.5" stroke-miterlimit="10" d="M58.213,39.983v1.012
		c-1.906,2.524-3.455,3.787-4.648,3.787c-0.648,0-1.156-0.354-1.525-1.06s-0.553-1.634-0.553-2.782c0-0.93,0.219-2.035,0.656-3.315
		s1.022-2.579,1.756-3.896c0.734-1.317,1.495-2.466,2.283-3.445c0.789-0.979,1.52-1.666,2.195-2.058
		c0.273-0.164,0.486-0.246,0.643-0.246c0.191,0,0.318,0.084,0.383,0.253c0.063,0.169,0.096,0.458,0.096,0.868
		c0,1.267-0.516,2.823-1.545,4.669c-1.031,1.846-2.467,3.73-4.307,5.653c-0.092,0.474-0.137,0.839-0.137,1.094
		c0,0.583,0.125,1.058,0.375,1.422c0.251,0.364,0.6,0.547,1.047,0.547c0.227,0,0.473-0.089,0.738-0.267
		c0.264-0.178,0.541-0.398,0.834-0.663C56.795,41.291,57.365,40.768,58.213,39.983z M54.125,37.522
		c0.473-0.465,0.932-0.993,1.373-1.586c0.442-0.593,0.859-1.226,1.252-1.9c0.391-0.675,0.699-1.28,0.922-1.818
		c0.224-0.538,0.336-0.943,0.336-1.217c0-0.21-0.074-0.314-0.219-0.314c-0.055,0-0.16,0.05-0.314,0.15
		c-0.557,0.456-1.182,1.347-1.873,2.673C54.908,34.836,54.416,36.174,54.125,37.522z"/>
	<path fill="none" stroke="#573A39" stroke-width="0.5" stroke-miterlimit="10" d="M64.625,39.983v1.012
		c-1.906,2.524-3.455,3.787-4.648,3.787c-0.648,0-1.156-0.354-1.525-1.06s-0.553-1.634-0.553-2.782c0-0.93,0.219-2.035,0.656-3.315
		s1.022-2.579,1.756-3.896c0.734-1.317,1.495-2.466,2.283-3.445c0.789-0.979,1.52-1.666,2.195-2.058
		c0.273-0.164,0.486-0.246,0.643-0.246c0.191,0,0.318,0.084,0.383,0.253c0.063,0.169,0.096,0.458,0.096,0.868
		c0,1.267-0.516,2.823-1.545,4.669c-1.031,1.846-2.467,3.73-4.307,5.653c-0.092,0.474-0.137,0.839-0.137,1.094
		c0,0.583,0.125,1.058,0.375,1.422c0.251,0.364,0.6,0.547,1.047,0.547c0.227,0,0.473-0.089,0.738-0.267
		c0.264-0.178,0.541-0.398,0.834-0.663C63.207,41.291,63.777,40.768,64.625,39.983z M60.537,37.522
		c0.473-0.465,0.932-0.993,1.373-1.586c0.442-0.593,0.859-1.226,1.252-1.9c0.391-0.675,0.699-1.28,0.922-1.818
		c0.224-0.538,0.336-0.943,0.336-1.217c0-0.21-0.074-0.314-0.219-0.314c-0.055,0-0.16,0.05-0.314,0.15
		c-0.557,0.456-1.182,1.347-1.873,2.673C61.32,34.836,60.828,36.174,60.537,37.522z"/>
	<path fill="none" stroke="#573A39" stroke-width="0.5" stroke-miterlimit="10" d="M64.447,40.517v-0.328
		c2.352-2.479,3.969-4.216,4.854-5.209c0.199-1.121,0.684-1.682,1.449-1.682c0.191,0,0.396,0.055,0.615,0.164l0.082,0.26
		c-0.037,0.109-0.055,0.265-0.055,0.465c0,0.173,0.065,0.494,0.197,0.964c0.133,0.47,0.234,0.863,0.309,1.183
		c0.072,0.319,0.109,0.679,0.109,1.08c0,0.602-0.137,1.178-0.41,1.729s-0.67,1.08-1.189,1.586s-1.189,1.023-2.01,1.552
		c0.328,0.055,0.588,0.082,0.779,0.082c0.373,0,0.776-0.094,1.209-0.28c0.434-0.187,0.875-0.438,1.326-0.752s0.979-0.723,1.58-1.224
		v0.916c-1.168,1.14-2.211,2.003-3.131,2.591c-0.922,0.588-1.715,0.882-2.379,0.882c-0.857,0-1.65-0.364-2.379-1.094
		c-0.43-0.438-0.695-0.856-0.801-1.258C64.499,41.742,64.447,41.2,64.447,40.517z M69.547,38.425l-0.246-1.996
		c-0.566,0.638-1.773,1.864-3.623,3.678c0.547,0.118,0.92,0.278,1.121,0.479c0.199,0.2,0.482,0.588,0.848,1.162
		c0.619-0.255,1.096-0.604,1.428-1.046c0.333-0.442,0.5-1.046,0.5-1.812c0-0.091-0.003-0.173-0.008-0.246
		C69.563,38.57,69.555,38.498,69.547,38.425z"/>
</g>
<g enable-background="new    ">
	<path fill="#563A39" d="M23.963,58.841l1.336-7.998H28.1c0.504,0,0.919,0.051,1.245,0.152s0.616,0.317,0.87,0.647
		s0.381,0.726,0.381,1.187c0,0.949-0.5,1.582-1.5,1.898c0.832,0.367,1.248,0.971,1.248,1.811c0,0.551-0.192,1.072-0.577,1.564
		s-1.134,0.738-2.247,0.738H23.963z M25.592,57.663h1.629c0.43,0,0.748-0.036,0.955-0.108s0.379-0.209,0.516-0.41
		s0.205-0.448,0.205-0.741c0-0.266-0.071-0.493-0.214-0.683s-0.305-0.314-0.486-0.375s-0.431-0.091-0.747-0.091h-1.453
		L25.592,57.663z M26.178,54.153h1.424c0.629,0,1.046-0.124,1.251-0.372s0.308-0.509,0.308-0.782c0-0.699-0.449-1.049-1.348-1.049
		h-1.266L26.178,54.153z"/>
	<path fill="#563A39" d="M36.157,58.841h-1.295c-0.008-0.105-0.012-0.191-0.012-0.258c0-0.285,0.035-0.627,0.105-1.025
		c-0.195,0.445-0.477,0.796-0.844,1.052s-0.771,0.384-1.213,0.384c-0.531,0-0.964-0.165-1.298-0.495S31.1,57.761,31.1,57.276
		c0-0.668,0.298-1.199,0.894-1.594s1.528-0.592,2.798-0.592c0.164,0,0.355,0.008,0.574,0.023c0.027-0.18,0.041-0.322,0.041-0.428
		c0-0.32-0.11-0.563-0.331-0.727s-0.495-0.246-0.823-0.246c-0.629,0-1.088,0.275-1.377,0.826l-1.172-0.369
		c0.492-0.969,1.361-1.453,2.607-1.453c0.742,0,1.328,0.168,1.758,0.504s0.645,0.783,0.645,1.342c0,0.238-0.094,0.867-0.281,1.887
		c-0.199,1.074-0.299,1.756-0.299,2.045C36.133,58.601,36.141,58.716,36.157,58.841z M35.249,55.8
		c-1.02,0.055-1.729,0.189-2.127,0.404s-0.598,0.529-0.598,0.943c0,0.238,0.08,0.433,0.24,0.583s0.379,0.226,0.656,0.226
		c0.398,0,0.768-0.175,1.107-0.524S35.108,56.538,35.249,55.8z"/>
	<path fill="#563A39" d="M38.952,58.841h-1.313l0.996-5.959h1.207l-0.27,1.623c0.512-1.191,1.199-1.787,2.063-1.787
		c0.035,0,0.088,0.002,0.158,0.006l-0.17,1.465c-0.129-0.008-0.227-0.012-0.293-0.012c-0.324,0-0.63,0.086-0.917,0.258
		s-0.512,0.403-0.674,0.694s-0.298,0.769-0.407,1.433L38.952,58.841z"/>
	<path fill="#563A39" d="M52.053,59.046c-0.156,0.016-0.285,0.023-0.387,0.023c-0.398,0-0.703-0.059-0.916-0.176
		s-0.457-0.344-0.73-0.68c-0.667,0.605-1.476,0.908-2.425,0.908c-0.84,0-1.518-0.239-2.033-0.718s-0.773-1.071-0.773-1.778
		c0-1.211,0.773-2.057,2.32-2.537c-0.328-0.508-0.492-1.01-0.492-1.506c0-0.52,0.185-0.979,0.554-1.377s0.86-0.598,1.474-0.598
		c0.645,0,1.16,0.177,1.546,0.53c0.387,0.354,0.58,0.794,0.58,1.321c0,0.957-0.631,1.637-1.892,2.039l1.423,2.004
		c0.727-0.82,1.213-1.668,1.459-2.543l1.096,0.305c-0.43,1.289-1.064,2.313-1.904,3.07c0.223,0.375,0.564,0.563,1.025,0.563
		c0.063,0,0.152-0.002,0.27-0.006L52.053,59.046z M47.7,54.962c-1.004,0.367-1.506,0.91-1.506,1.629c0,0.367,0.14,0.687,0.419,0.958
		s0.636,0.407,1.069,0.407c0.559,0,1.121-0.207,1.688-0.621L47.7,54.962z M48.379,53.661l0.305-0.135
		c0.598-0.27,0.896-0.609,0.896-1.02c0-0.223-0.081-0.405-0.243-0.548s-0.366-0.214-0.612-0.214c-0.266,0-0.473,0.087-0.621,0.261
		s-0.223,0.364-0.223,0.571C47.881,52.905,48.047,53.267,48.379,53.661z"/>
	<path fill="#563A39" d="M62.324,58.841h-0.621l-0.24-1.078c-0.434,0.816-1.16,1.225-2.18,1.225c-0.855,0-1.547-0.296-2.074-0.888
		s-0.791-1.446-0.791-2.563c0-1.367,0.357-2.529,1.072-3.486s1.656-1.436,2.824-1.436c1.535,0,2.508,0.789,2.918,2.367l-1.266,0.316
		c-0.27-0.965-0.83-1.447-1.682-1.447c-0.711,0-1.275,0.378-1.693,1.134s-0.627,1.618-0.627,2.587c0,0.75,0.152,1.307,0.455,1.67
		s0.709,0.545,1.221,0.545c0.91,0,1.521-0.627,1.834-1.881h-1.74l0.199-1.207h3.082L62.324,58.841z"/>
	<path fill="#563A39" d="M65.195,58.841h-1.313l0.996-5.959h1.207l-0.27,1.623c0.512-1.191,1.199-1.787,2.063-1.787
		c0.035,0,0.088,0.002,0.158,0.006l-0.17,1.465c-0.129-0.008-0.227-0.012-0.293-0.012c-0.324,0-0.629,0.086-0.916,0.258
		s-0.512,0.403-0.674,0.694s-0.299,0.769-0.408,1.433L65.195,58.841z"/>
	<path fill="#563A39" d="M69.426,58.841h-1.377l0.996-5.959h1.377L69.426,58.841z M70.539,52.19h-1.377l0.24-1.43h1.377
		L70.539,52.19z"/>
	<path fill="#563A39" d="M72.402,58.841h-1.377l1.336-7.998h1.377L72.402,58.841z"/>
	<path fill="#563A39" d="M75.379,58.841h-1.377l1.336-7.998h1.377L75.379,58.841z"/>
</g>
<line fill="none" stroke="#573A39" stroke-miterlimit="10" x1="15.417" y1="47.875" x2="84.833" y2="47.875"/>
<rect x="7.875" y="5.75" fill="none" width="38.5" height="34"/>
<g enable-background="new    ">
	<path fill="#563A39" d="M70.52,27.195c0.154,0,0.232,0.068,0.232,0.205s-0.188,0.369-0.561,0.697
		c-0.265,0.265-0.396,0.424-0.396,0.479c0,0.073,0.091,0.103,0.273,0.089c0.182-0.014,0.337,0.009,0.465,0.068
		c0.127,0.06,0.191,0.23,0.191,0.513c0,0.383-0.207,0.813-0.622,1.292s-0.873,0.718-1.374,0.718c-0.246,0-0.442-0.087-0.588-0.26
		c-0.146-0.173-0.219-0.392-0.219-0.656c0-0.374,0.166-0.807,0.499-1.299s0.713-0.923,1.142-1.292
		C69.99,27.38,70.31,27.195,70.52,27.195z"/>
</g>
<g enable-background="new    ">
	<path fill="none" stroke="#563A39" stroke-width="0.5" stroke-miterlimit="10" d="M70.52,27.195c0.154,0,0.232,0.068,0.232,0.205
		s-0.188,0.369-0.561,0.697c-0.265,0.265-0.396,0.424-0.396,0.479c0,0.073,0.091,0.103,0.273,0.089
		c0.182-0.014,0.337,0.009,0.465,0.068c0.127,0.06,0.191,0.23,0.191,0.513c0,0.383-0.207,0.813-0.622,1.292
		s-0.873,0.718-1.374,0.718c-0.246,0-0.442-0.087-0.588-0.26c-0.146-0.173-0.219-0.392-0.219-0.656c0-0.374,0.166-0.807,0.499-1.299
		s0.713-0.923,1.142-1.292C69.99,27.38,70.31,27.195,70.52,27.195z"/>
</g>
</svg>
